{
  "accessors": [
    {
      "bufferView": 2,
      "componentType": 5126,
      "count": 8,
      "max": [
        0.5,
        0.5,
        0.5
      ],
      "min": [
        -0.5,
        -0.5,
        -0.5
      ],
      "type": "VEC3"
    },
    {
      "bufferView": 2,
      "byteOffset": 96,
      "componentType": 5126,
      "count": 8,
      "max": [
        0.5773503184318542,
        0.5773503184318542,
        0.5773503184318542
      ],
      "min": [
        -0.5773503184318542,
        -0.5773503184318542,
        -0.5773503184318542
      ],
      "type": "VEC3"
    },
    {
      "bufferView": 0,
      "componentType": 5125,
      "count": 36,
      "type": "SCALAR"
    },
    {
      "bufferView": 2,
      "byteOffset": 192,
      "componentType": 5126,
      "count": 38,
      "max": [
        3.3931500911712646,
        0.4262300133705139,
        0.6977099776268005
      ],
      "min": [
        0.4316299855709076,
        -1.4903500080108643,
        -1.1360499858856201
      ],
      "type": "VEC3"
    },
    {
      "bufferView": 2,
      "byteOffset": 648,
      "componentType": 5126,
      "count": 38,
      "max": [
        0.8700913786888123,
        0.8315622210502625,
        0.8481224775314331
      ],
      "min": [
        -0.8700913786888123,
        -0.9985582232475281,
        -0.8228694200515747
      ],
      "type": "VEC3"
    },
    {
      "bufferView": 3,
      "componentType": 5126,
      "count": 38,
      "max": [
        0.998428225517273,
        0.8854597806930542,
        0.8621315360069275,
        1.0
      ],
      "min": [
        -0.32264670729637146,
        -0.8274068236351013,
        -0.8164851665496826,
        -1.0
      ],
      "type": "VEC4"
    },
    {
      "bufferView": 1,
      "componentType": 5126,
      "count": 38,
      "max": [
        0.5608100295066833,
        0.8005499839782715
      ],
      "min": [
        0.1128000020980835,
        0.2612699866294861
      ],
      "type": "VEC2"
    },
    {
      "bufferView": 0,
      "byteOffset": 144,
      "componentType": 5125,
      "count": 204,
      "type": "SCALAR"
    },
    {
      "bufferView": 2,
      "byteOffset": 1104,
      "componentType": 5126,
      "count": 15262,
      "max": [
        6.5707597732543945,
        3.133620023727417,
        2.271589994430542
      ],
      "min": [
        -2.8279600143432617,
        -1.945580005645752,
        -15.070520401000977
      ],
      "type": "VEC3"
    },
    {
      "bufferView": 2,
      "byteOffset": 184248,
      "componentType": 5126,
      "count": 15262,
      "max": [
        1.0,
        1.0,
        1.0
      ],
      "min": [
        -1.0,
        -1.0,
        -1.0
      ],
      "type": "VEC3"
    },
    {
      "bufferView": 1,
      "byteOffset": 304,
      "componentType": 5126,
      "count": 15262,
      "max": [
        1.0,
        1.0
      ],
      "min": [
        -0.1743600070476532,
        0.0
      ],
      "type": "VEC2"
    },
    {
      "bufferView": 0,
      "byteOffset": 960,
      "componentType": 5125,
      "count": 57216,
      "type": "SCALAR"
    },
    {
      "bufferView": 2,
      "byteOffset": 367392,
      "componentType": 5126,
      "count": 850,
      "max": [
        0.40046000480651855,
        3.2223598957061768,
        -3.920949935913086
      ],
      "min": [
        0.3147200047969818,
        -1.8568400144577026,
        -16.287500381469727
      ],
      "type": "VEC3"
    },
    {
      "bufferView": 2,
      "byteOffset": 377592,
      "componentType": 5126,
      "count": 850,
      "max": [
        0.9986340403556824,
        1.0,
        0.9991673827171326
      ],
      "min": [
        -0.998630940914154,
        -1.0,
        -0.7066416144371033
      ],
      "type": "VEC3"
    },
    {
      "bufferView": 1,
      "byteOffset": 122400,
      "componentType": 5126,
      "count": 850,
      "max": [
        0.3869999945163727,
        0.9898599982261658
      ],
      "min": [
        0.14744000136852264,
        0.2492000013589859
      ],
      "type": "VEC2"
    },
    {
      "bufferView": 0,
      "byteOffset": 229824,
      "componentType": 5125,
      "count": 2724,
      "type": "SCALAR"
    },
    {
      "bufferView": 2,
      "byteOffset": 387792,
      "componentType": 5126,
      "count": 9678,
      "max": [
        2.8393399715423584,
        0.8927099704742432,
        0.64096999168396
      ],
      "min": [
        -0.9729700088500977,
        0.8354799747467041,
        -1.3409700393676758
      ],
      "type": "VEC3"
    },
    {
      "bufferView": 2,
      "byteOffset": 503928,
      "componentType": 5126,
      "count": 9678,
      "max": [
        0.999999463558197,
        0.9999999403953552,
        0.9999989867210388
      ],
      "min": [
        -0.9999999403953552,
        -0.9894595742225647,
        -0.9999992251396179
      ],
      "type": "VEC3"
    },
    {
      "bufferView": 3,
      "byteOffset": 608,
      "componentType": 5126,
      "count": 9678,
      "max": [
        0.9999998211860657,
        0.9999997615814209,
        0.9751365184783936,
        1.0
      ],
      "min": [
        -1.0,
        -0.9999998807907104,
        -0.9749675393104553,
        -1.0
      ],
      "type": "VEC4"
    },
    {
      "bufferView": 1,
      "byteOffset": 129200,
      "componentType": 5126,
      "count": 9678,
      "max": [
        0.8365499973297119,
        0.7876899838447571
      ],
      "min": [
        0.13854999840259552,
        0.424809992313385
      ],
      "type": "VEC2"
    },
    {
      "bufferView": 1,
      "byteOffset": 206624,
      "componentType": 5126,
      "count": 9678,
      "max": [
        0.8365499973297119,
        0.7876899838447571
      ],
      "min": [
        0.13854999840259552,
        0.424809992313385
      ],
      "type": "VEC2"
    },
    {
      "bufferView": 0,
      "byteOffset": 240720,
      "componentType": 5125,
      "count": 53982,
      "type": "SCALAR"
    },
    {
      "bufferView": 2,
      "byteOffset": 620064,
      "componentType": 5126,
      "count": 6568,
      "max": [
        4.286019802093506,
        1.2783199548721313,
        2.862299919128418
      ],
      "min": [
        -2.70878005027771,
        -1.7286200523376465,
        -0.09523999691009521
      ],
      "type": "VEC3"
    },
    {
      "bufferView": 2,
      "byteOffset": 698880,
      "componentType": 5126,
      "count": 6568,
      "max": [
        1.0,
        1.0,
        1.0
      ],
      "min": [
        -1.0,
        -1.0,
        -1.0
      ],
      "type": "VEC3"
    },
    {
      "bufferView": 3,
      "byteOffset": 155456,
      "componentType": 5126,
      "count": 6568,
      "max": [
        0.9999884366989136,
        0.8061638474464417,
        0.992668628692627,
        1.0
      ],
      "min": [
        -0.859958291053772,
        -1.0,
        -0.9564452767372131,
        -1.0
      ],
      "type": "VEC4"
    },
    {
      "bufferView": 1,
      "byteOffset": 284048,
      "componentType": 5126,
      "count": 6568,
      "max": [
        0.8849300146102905,
        0.9831600189208984
      ],
      "min": [
        0.06503000110387802,
        0.05852999910712242
      ],
      "type": "VEC2"
    },
    {
      "bufferView": 1,
      "byteOffset": 336592,
      "componentType": 5126,
      "count": 6568,
      "max": [
        0.8849300146102905,
        0.9831600189208984
      ],
      "min": [
        0.06503000110387802,
        0.05852999910712242
      ],
      "type": "VEC2"
    },
    {
      "bufferView": 0,
      "byteOffset": 456648,
      "componentType": 5125,
      "count": 19932,
      "type": "SCALAR"
    },
    {
      "bufferView": 2,
      "byteOffset": 777696,
      "componentType": 5126,
      "count": 2631,
      "max": [
        4.45359992980957,
        2.347520112991333,
        0.7622699737548828
      ],
      "min": [
        -2.6911699771881104,
        -1.2245800495147705,
        -1.4356600046157837
      ],
      "type": "VEC3"
    },
    {
      "bufferView": 2,
      "byteOffset": 809268,
      "componentType": 5126,
      "count": 2631,
      "max": [
        0.9999998211860657,
        1.0,
        0.9999999403953552
      ],
      "min": [
        -0.999999463558197,
        -0.9999995827674866,
        -0.9999993443489075
      ],
      "type": "VEC3"
    },
    {
      "bufferView": 3,
      "byteOffset": 260544,
      "componentType": 5126,
      "count": 2631,
      "max": [
        0.9999154210090637,
        0.9999963045120239,
        0.9991037249565125,
        1.0
      ],
      "min": [
        -0.993776261806488,
        -0.9996547698974609,
        -0.9998940229415894,
        -1.0
      ],
      "type": "VEC4"
    },
    {
      "bufferView": 1,
      "byteOffset": 389136,
      "componentType": 5126,
      "count": 2631,
      "max": [
        0.8902699947357178,
        0.9079700112342834
      ],
      "min": [
        0.0820700004696846,
        0.13131000101566315
      ],
      "type": "VEC2"
    },
    {
      "bufferView": 1,
      "byteOffset": 410184,
      "componentType": 5126,
      "count": 2631,
      "max": [
        0.8902699947357178,
        0.9079700112342834
      ],
      "min": [
        0.0820700004696846,
        0.13131000101566315
      ],
      "type": "VEC2"
    },
    {
      "bufferView": 0,
      "byteOffset": 536376,
      "componentType": 5125,
      "count": 13776,
      "type": "SCALAR"
    }
  ],
  "asset": {
    "extras": {
      "author": "NASA (https://sketchfab.com/NASA)",
      "license": "CC-BY-NC-4.0 (http://creativecommons.org/licenses/by-nc/4.0/)",
      "source": "https://sketchfab.com/3d-models/aqua-satellite-wWmEeEeS71I2eX4PS281MUMK3B5",
      "title": "Aqua satellite"
    },
    "generator": "Sketchfab-12.64.0",
    "version": "2.0"
  },
  "bufferViews": [
    {
      "buffer": 0,
      "byteLength": 591480,
      "name": "floatBufferViews",
      "target": 34963
    },
    {
      "buffer": 0,
      "byteLength": 431232,
      "byteOffset": 591480,
      "byteStride": 8,
      "name": "floatBufferViews",
      "target": 34962
    },
    {
      "buffer": 0,
      "byteLength": 840840,
      "byteOffset": 1022712,
      "byteStride": 12,
      "name": "floatBufferViews",
      "target": 34962
    },
    {
      "buffer": 0,
      "byteLength": 302640,
      "byteOffset": 1863552,
      "byteStride": 16,
      "name": "floatBufferViews",
      "target": 34962
    }
  ],
  "buffers": [
    {
      "byteLength": 2166192,
      "uri": "scene.bin"
    }
  ],
  "images": [
    {
      "uri": "textures/black_krinkle_normal.png"
    },
    {
      "uri": "textures/foil_gold_baseColor.png"
    },
    {
      "uri": "textures/foil_silver_baseColor.png"
    }
  ],
  "materials": [
    {
      "doubleSided": true,
      "name": "tex_01",
      "pbrMetallicRoughness": {
        "baseColorFactor": [
          0.6400000190400001,
          0.6400000190400001,
          0.6400000190400001,
          1.0
        ],
        "metallicFactor": 0.0,
        "roughnessFactor": 0.6
      }
    },
    {
      "doubleSided": true,
      "name": "black_krinkle",
      "normalTexture": {
        "index": 0
      },
      "pbrMetallicRoughness": {
        "baseColorFactor": [
          0.003916515498258167,
          0.003916515498258167,
          0.003916515498258167,
          1.0
        ],
        "metallicFactor": 0.0,
        "roughnessFactor": 0.6
      }
    },
    {
      "doubleSided": true,
      "name": "shiny_panel",
      "pbrMetallicRoughness": {
        "baseColorFactor": [
          0.6400000190400001,
          0.6400000190400001,
          0.6400000190400001,
          1.0
        ],
        "metallicFactor": 0.0,
        "roughnessFactor": 0.6
      }
    },
    {
      "doubleSided": true,
      "name": "foil_gold",
      "normalTexture": {
        "index": 0,
        "texCoord": 1
      },
      "pbrMetallicRoughness": {
        "baseColorTexture": {
          "index": 1
        },
        "metallicFactor": 0.0,
        "roughnessFactor": 0.6
      }
    },
    {
      "doubleSided": true,
      "name": "foil_silver",
      "normalTexture": {
        "index": 0,
        "texCoord": 1
      },
      "pbrMetallicRoughness": {
        "baseColorTexture": {
          "index": 2
        },
        "metallicFactor": 0.0,
        "roughnessFactor": 0.6
      }
    }
  ],
  "meshes": [
    {
      "name": "_root_0",
      "primitives": [
        {
          "attributes": {
            "NORMAL": 1,
            "POSITION": 0
          },
          "indices": 2,
          "material": 0,
          "mode": 4
        }
      ]
    },
    {
      "name": "black_krinkle_0",
      "primitives": [
        {
          "attributes": {
            "NORMAL": 4,
            "POSITION": 3,
            "TANGENT": 5,
            "TEXCOORD_0": 6
          },
          "indices": 7,
          "material": 1,
          "mode": 4
        }
      ]
    },
    {
      "name": "tex_01_0",
      "primitives": [
        {
          "attributes": {
            "NORMAL": 9,
            "POSITION": 8,
            "TEXCOORD_0": 10
          },
          "indices": 11,
          "material": 0,
          "mode": 4
        }
      ]
    },
    {
      "name": "shiny_panel_0",
      "primitives": [
        {
          "attributes": {
            "NORMAL": 13,
            "POSITION": 12,
            "TEXCOORD_0": 14
          },
          "indices": 15,
          "material": 2,
          "mode": 4
        }
      ]
    },
    {
      "name": "gold_2_0",
      "primitives": [
        {
          "attributes": {
            "NORMAL": 17,
            "POSITION": 16,
            "TANGENT": 18,
            "TEXCOORD_0": 19,
            "TEXCOORD_1": 20
          },
          "indices": 21,
          "material": 3,
          "mode": 4
        }
      ]
    },
    {
      "name": "foil_silver_0",
      "primitives": [
        {
          "attributes": {
            "NORMAL": 23,
            "POSITION": 22,
            "TANGENT": 24,
            "TEXCOORD_0": 25,
            "TEXCOORD_1": 26
          },
          "indices": 27,
          "material": 4,
          "mode": 4
        }
      ]
    },
    {
      "name": "foil_gold_0",
      "primitives": [
        {
          "attributes": {
            "NORMAL": 29,
            "POSITION": 28,
            "TANGENT": 30,
            "TEXCOORD_0": 31,
            "TEXCOORD_1": 32
          },
          "indices": 33,
          "material": 3,
          "mode": 4
        }
      ]
    }
  ],
  "nodes": [
    {
      "children": [
        1
      ],
      "matrix": [
        1.0,
        0.0,
        0.0,
        0.0,
        0.0,
        1.0,
        2.220446049250313e-16,
        0.0,
        0.0,
        -2.220446049250313e-16,
        1.0,
        0.0,
        0.0,
        0.0,
        0.0,
        1.0
      ],
      "name": "Sketchfab_model"
    },
    {
      "children": [
        2
      ],
      "name": "Root"
    },
    {
      "children": [
        3,
        4,
        6,
        8,
        10,
        12,
        14
      ],
      "name": "_root"
    },
    {
      "mesh": 0,
      "name": "_root_0"
    },
    {
      "children": [
        5
      ],
      "name": "black_krinkle"
    },
    {
      "mesh": 1,
      "name": "black_krinkle_0"
    },
    {
      "children": [
        7
      ],
      "matrix": [
        1.0,
        0.0,
        0.0,
        0.0,
        0.0,
        1.0,
        0.0,
        0.0,
        0.0,
        0.0,
        1.0,
        0.0,
        -1.6763500000000002,
        0.08874000000000003,
        -1.21698,
        1.0
      ],
      "name": "tex_01"
    },
    {
      "mesh": 2,
      "name": "tex_01_0"
    },
    {
      "children": [
        9
      ],
      "name": "shiny_panel"
    },
    {
      "mesh": 3,
      "name": "shiny_panel_0"
    },
    {
      "children": [
        11
      ],
      "name": "gold_2"
    },
    {
      "mesh": 4,
      "name": "gold_2_0"
    },
    {
      "children": [
        13
      ],
      "matrix": [
        1.0,
        0.0,
        0.0,
        0.0,
        0.0,
        1.0,
        0.0,
        0.0,
        0.0,
        0.0,
        1.0,
        0.0,
        0.18248000000000003,
        0.06674000000000002,
        -1.3723,
        1.0
      ],
      "name": "foil_silver"
    },
    {
      "mesh": 5,
      "name": "foil_silver_0"
    },
    {
      "children": [
        15
      ],
      "matrix": [
        1.0,
        0.0,
        0.0,
        0.0,
        0.0,
        1.0,
        0.0,
        0.0,
        0.0,
        0.0,
        0.99545,
        0.0,
        0.0,
        0.0,
        0.0,
        1.0
      ],
      "name": "foil_gold"
    },
    {
      "mesh": 6,
      "name": "foil_gold_0"
    }
  ],
  "samplers": [
    {
      "magFilter": 9729,
      "minFilter": 9987,
      "wrapS": 10497,
      "wrapT": 10497
    }
  ],
  "scene": 0,
  "scenes": [
    {
      "name": "Sketchfab_Scene",
      "nodes": [
        0
      ]
    }
  ],
  "textures": [
    {
      "sampler": 0,
      "source": 0
    },
    {
      "sampler": 0,
      "source": 1
    },
    {
      "sampler": 0,
      "source": 2
    }
  ]
}
