{
  "accessors": [
    {
      "bufferView": 2,
      "componentType": 5126,
      "count": 24,
      "max": [
        0.5,
        0.5,
        0.5
      ],
      "min": [
        -0.5,
        -0.5,
        -0.5
      ],
      "type": "VEC3"
    },
    {
      "bufferView": 2,
      "byteOffset": 288,
      "componentType": 5126,
      "count": 24,
      "max": [
        1.0,
        1.0,
        1.0
      ],
      "min": [
        -1.0,
        -1.0,
        -1.0
      ],
      "type": "VEC3"
    },
    {
      "bufferView": 0,
      "componentType": 5125,
      "count": 36,
      "type": "SCALAR"
    },
    {
      "bufferView": 2,
      "byteOffset": 576,
      "componentType": 5126,
      "count": 1091,
      "max": [
        31.72760009765625,
        31.620849609375,
        6.267399787902832
      ],
      "min": [
        -31.713199615478516,
        -31.62125015258789,
        -95.1144027709961
      ],
      "type": "VEC3"
    },
    {
      "bufferView": 2,
      "byteOffset": 13668,
      "componentType": 5126,
      "count": 1091,
      "max": [
        1.0,
        1.0,
        0.9999893307685852
      ],
      "min": [
        -1.0,
        -1.0,
        -1.0
      ],
      "type": "VEC3"
    },
    {
      "bufferView": 3,
      "componentType": 5126,
      "count": 1091,
      "max": [
        1.0,
        1.0,
        0.9935011267662048,
        1.0
      ],
      "min": [
        -0.9999915361404419,
        -1.0,
        -0.9935574531555176,
        -1.0
      ],
      "type": "VEC4"
    },
    {
      "bufferView": 1,
      "componentType": 5126,
      "count": 1091,
      "max": [
        0.8370000123977661,
        0.9910299777984619
      ],
      "min": [
        0.012529999949038029,
        0.088919997215271
      ],
      "type": "VEC2"
    },
    {
      "bufferView": 1,
      "byteOffset": 8728,
      "componentType": 5126,
      "count": 1091,
      "max": [
        0.8370000123977661,
        0.9910299777984619
      ],
      "min": [
        0.012529999949038029,
        0.088919997215271
      ],
      "type": "VEC2"
    },
    {
      "bufferView": 0,
      "byteOffset": 144,
      "componentType": 5125,
      "count": 5010,
      "type": "SCALAR"
    },
    {
      "bufferView": 2,
      "byteOffset": 26760,
      "componentType": 5126,
      "count": 6039,
      "max": [
        111.61514282226563,
        38.51744079589844,
        18.038549423217773
      ],
      "min": [
        -111.54988861083984,
        -184.6475830078125,
        -91.92064666748047
      ],
      "type": "VEC3"
    },
    {
      "bufferView": 2,
      "byteOffset": 99228,
      "componentType": 5126,
      "count": 6039,
      "max": [
        1.0,
        1.0,
        1.0
      ],
      "min": [
        -1.0,
        -1.0,
        -1.0
      ],
      "type": "VEC3"
    },
    {
      "bufferView": 1,
      "byteOffset": 17456,
      "componentType": 5126,
      "count": 6039,
      "max": [
        0.7787200212478638,
        0.9910699725151062
      ],
      "min": [
        0.0053400001488626,
        0.2375900000333786
      ],
      "type": "VEC2"
    },
    {
      "bufferView": 0,
      "byteOffset": 20184,
      "componentType": 5125,
      "count": 21582,
      "type": "SCALAR"
    },
    {
      "bufferView": 2,
      "byteOffset": 171696,
      "componentType": 5126,
      "count": 16,
      "max": [
        111.0483169555664,
        37.95064926147461,
        0.40174999833106995
      ],
      "min": [
        -110.98310852050781,
        -184.08078002929688,
        0.40174999833106995
      ],
      "type": "VEC3"
    },
    {
      "bufferView": 2,
      "byteOffset": 171888,
      "componentType": 5126,
      "count": 16,
      "max": [
        0.0,
        0.0,
        1.0
      ],
      "min": [
        0.0,
        0.0,
        1.0
      ],
      "type": "VEC3"
    },
    {
      "bufferView": 3,
      "byteOffset": 17456,
      "componentType": 5126,
      "count": 16,
      "max": [
        1.0,
        1.0,
        0.0,
        1.0
      ],
      "min": [
        -1.0,
        -1.0,
        0.0,
        1.0
      ],
      "type": "VEC4"
    },
    {
      "bufferView": 1,
      "byteOffset": 65768,
      "componentType": 5126,
      "count": 16,
      "max": [
        0.7766900062561035,
        0.9835900068283081
      ],
      "min": [
        0.5336099863052368,
        0.49371999502182007
      ],
      "type": "VEC2"
    },
    {
      "bufferView": 0,
      "byteOffset": 106512,
      "componentType": 5125,
      "count": 24,
      "type": "SCALAR"
    },
    {
      "bufferView": 2,
      "byteOffset": 172080,
      "componentType": 5126,
      "count": 314,
      "max": [
        31.005300521850586,
        27.20639991760254,
        -40.96900177001953
      ],
      "min": [
        -32.384700775146484,
        -32.383201599121094,
        -57.09389877319336
      ],
      "type": "VEC3"
    },
    {
      "bufferView": 2,
      "byteOffset": 175848,
      "componentType": 5126,
      "count": 314,
      "max": [
        1.0,
        1.0,
        1.0
      ],
      "min": [
        -1.0,
        -1.0,
        -1.0
      ],
      "type": "VEC3"
    },
    {
      "bufferView": 3,
      "byteOffset": 17712,
      "componentType": 5126,
      "count": 314,
      "max": [
        0.9997645020484924,
        0.9950569868087769,
        0.9429804682731628,
        1.0
      ],
      "min": [
        -0.5991669297218323,
        -0.981629490852356,
        -0.997484028339386,
        -1.0
      ],
      "type": "VEC4"
    },
    {
      "bufferView": 1,
      "byteOffset": 65896,
      "componentType": 5126,
      "count": 314,
      "max": [
        0.7270200252532959,
        0.8629699945449829
      ],
      "min": [
        0.03238999843597412,
        0.2590300142765045
      ],
      "type": "VEC2"
    },
    {
      "bufferView": 1,
      "byteOffset": 68408,
      "componentType": 5126,
      "count": 314,
      "max": [
        0.7270200252532959,
        0.8629699945449829
      ],
      "min": [
        0.03238999843597412,
        0.2590300142765045
      ],
      "type": "VEC2"
    },
    {
      "bufferView": 0,
      "byteOffset": 106608,
      "componentType": 5125,
      "count": 1308,
      "type": "SCALAR"
    }
  ],
  "asset": {
    "extras": {
      "author": "NASA (https://sketchfab.com/NASA)",
      "license": "CC-BY-NC-4.0 (http://creativecommons.org/licenses/by-nc/4.0/)",
      "source": "https://sketchfab.com/3d-models/near-satellite-hUZJyxkL45sN62mJb3FlL4lQCvU",
      "title": "NEAR Satellite"
    },
    "generator": "Sketchfab-12.63.0",
    "version": "2.0"
  },
  "bufferViews": [
    {
      "buffer": 0,
      "byteLength": 111840,
      "name": "floatBufferViews",
      "target": 34963
    },
    {
      "buffer": 0,
      "byteLength": 70920,
      "byteOffset": 111840,
      "byteStride": 8,
      "name": "floatBufferViews",
      "target": 34962
    },
    {
      "buffer": 0,
      "byteLength": 179616,
      "byteOffset": 182760,
      "byteStride": 12,
      "name": "floatBufferViews",
      "target": 34962
    },
    {
      "buffer": 0,
      "byteLength": 22736,
      "byteOffset": 362376,
      "byteStride": 16,
      "name": "floatBufferViews",
      "target": 34962
    }
  ],
  "buffers": [
    {
      "byteLength": 385112,
      "uri": "scene.bin"
    }
  ],
  "images": [
    {
      "uri": "textures/foil_gold_baseColor.png"
    },
    {
      "uri": "textures/foil_gold_normal.png"
    },
    {
      "uri": "textures/foil_silver_baseColor.png"
    }
  ],
  "materials": [
    {
      "doubleSided": true,
      "name": "root_0",
      "pbrMetallicRoughness": {
        "metallicFactor": 0.0,
        "roughnessFactor": 0.6
      }
    },
    {
      "doubleSided": true,
      "name": "foil_gold",
      "normalTexture": {
        "index": 1,
        "scale": 0.45,
        "texCoord": 1
      },
      "pbrMetallicRoughness": {
        "baseColorFactor": [
          0.75,
          0.75,
          0.75,
          1.0
        ],
        "baseColorTexture": {
          "index": 0
        },
        "metallicFactor": 0.0,
        "roughnessFactor": 0.6
      }
    },
    {
      "doubleSided": true,
      "name": "tex_01",
      "pbrMetallicRoughness": {
        "baseColorFactor": [
          0.6400000190400001,
          0.6400000190400001,
          0.6400000190400001,
          1.0
        ],
        "metallicFactor": 0.0,
        "roughnessFactor": 0.6
      }
    },
    {
      "doubleSided": true,
      "name": "shiny_panels",
      "normalTexture": {
        "index": 2
      },
      "pbrMetallicRoughness": {
        "baseColorFactor": [
          0.6400000190400001,
          0.6400000190400001,
          0.6400000190400001,
          1.0
        ],
        "metallicFactor": 0.0,
        "roughnessFactor": 0.6
      }
    },
    {
      "doubleSided": true,
      "name": "foil_silver",
      "normalTexture": {
        "index": 1
      },
      "pbrMetallicRoughness": {
        "baseColorTexture": {
          "index": 3
        },
        "metallicFactor": 0.0,
        "roughnessFactor": 0.6
      }
    }
  ],
  "meshes": [
    {
      "name": "_root_0",
      "primitives": [
        {
          "attributes": {
            "NORMAL": 1,
            "POSITION": 0
          },
          "indices": 2,
          "material": 0,
          "mode": 4
        }
      ]
    },
    {
      "name": "foil_gold_0",
      "primitives": [
        {
          "attributes": {
            "NORMAL": 4,
            "POSITION": 3,
            "TANGENT": 5,
            "TEXCOORD_0": 6,
            "TEXCOORD_1": 7
          },
          "indices": 8,
          "material": 1,
          "mode": 4
        }
      ]
    },
    {
      "name": "tex_01_0",
      "primitives": [
        {
          "attributes": {
            "NORMAL": 10,
            "POSITION": 9,
            "TEXCOORD_0": 11
          },
          "indices": 12,
          "material": 2,
          "mode": 4
        }
      ]
    },
    {
      "name": "shiny_panels_0",
      "primitives": [
        {
          "attributes": {
            "NORMAL": 14,
            "POSITION": 13,
            "TANGENT": 15,
            "TEXCOORD_0": 16
          },
          "indices": 17,
          "material": 3,
          "mode": 4
        }
      ]
    },
    {
      "name": "foil_silver_0",
      "primitives": [
        {
          "attributes": {
            "NORMAL": 19,
            "POSITION": 18,
            "TANGENT": 20,
            "TEXCOORD_0": 21,
            "TEXCOORD_1": 22
          },
          "indices": 23,
          "material": 4,
          "mode": 4
        }
      ]
    }
  ],
  "nodes": [
    {
      "children": [
        1
      ],
      "matrix": [
        1.0,
        0.0,
        0.0,
        0.0,
        0.0,
        2.220446049250313e-16,
        -1.0,
        0.0,
        0.0,
        1.0,
        2.220446049250313e-16,
        0.0,
        0.0,
        0.0,
        0.0,
        1.0
      ],
      "name": "Sketchfab_model"
    },
    {
      "children": [
        2
      ],
      "name": "Root"
    },
    {
      "children": [
        3,
        4,
        6,
        8,
        10
      ],
      "name": "_root"
    },
    {
      "mesh": 0,
      "name": "_root_0"
    },
    {
      "children": [
        5
      ],
      "matrix": [
        0.023720000000000005,
        0.0,
        0.0,
        0.0,
        0.0,
        0.023720000000000005,
        0.0,
        0.0,
        0.0,
        0.0,
        0.023720000000000005,
        0.0,
        0.0,
        -0.0,
        1.2836199999999998,
        1.0
      ],
      "name": "foil_gold"
    },
    {
      "mesh": 1,
      "name": "foil_gold_0"
    },
    {
      "children": [
        7
      ],
      "matrix": [
        0.0,
        0.023720000000000005,
        0.0,
        0.0,
        -0.023720000000000005,
        0.0,
        0.0,
        0.0,
        0.0,
        0.0,
        0.023720000000000005,
        0.0,
        -1.7331400000000001,
        -0.0007700000000000003,
        0.74811,
        1.0
      ],
      "name": "tex_01"
    },
    {
      "mesh": 2,
      "name": "tex_01_0"
    },
    {
      "children": [
        9
      ],
      "matrix": [
        0.023720000000000005,
        0.0,
        0.0,
        0.0,
        0.0,
        0.023720000000000005,
        0.0,
        0.0,
        0.0,
        0.0,
        0.023720000000000005,
        0.0,
        -0.0007700000000000003,
        1.7331400000000001,
        0.74811,
        1.0
      ],
      "name": "shiny_panels"
    },
    {
      "mesh": 3,
      "name": "shiny_panels_0"
    },
    {
      "children": [
        11
      ],
      "matrix": [
        0.023720000000000005,
        0.0,
        0.0,
        0.0,
        0.0,
        0.023720000000000005,
        0.0,
        0.0,
        0.0,
        0.0,
        0.023720000000000005,
        0.0,
        0.0,
        0.0,
        0.0,
        1.0
      ],
      "name": "foil_silver"
    },
    {
      "mesh": 4,
      "name": "foil_silver_0"
    }
  ],
  "samplers": [
    {
      "magFilter": 9729,
      "minFilter": 9987,
      "wrapS": 10497,
      "wrapT": 10497
    },
    {
      "magFilter": 9729,
      "minFilter": 9729,
      "wrapS": 10497,
      "wrapT": 10497
    }
  ],
  "scene": 0,
  "scenes": [
    {
      "name": "Sketchfab_Scene",
      "nodes": [
        0
      ]
    }
  ],
  "textures": [
    {
      "sampler": 0,
      "source": 0
    },
    {
      "sampler": 0,
      "source": 1
    },
    {
      "sampler": 1,
      "source": 1
    },
    {
      "sampler": 0,
      "source": 2
    }
  ]
}
